<?xml version="1.0" standalone="no"?>
<!DOCTYPE svg PUBLIC "-//W3C//DTD SVG 20010904//EN"
 "http://www.w3.org/TR/2001/REC-SVG-20010904/DTD/svg10.dtd">
<svg version="1.0" xmlns="http://www.w3.org/2000/svg"
 width="328.000000pt" height="328.000000pt" viewBox="0 0 328.000000 328.000000"
 preserveAspectRatio="xMidYMid meet">
<metadata>
Created by potrace 1.14, written by Peter Selinger 2001-2017
</metadata>
<g transform="translate(0.000000,328.000000) scale(0.100000,-0.100000)"
fill="#000000" stroke="none">
<path d="M741 3254 c-191 -51 -344 -216 -386 -415 -22 -103 -22 -2279 -1
-2392 39 -203 194 -370 391 -422 89 -23 1691 -23 1780 0 177 47 326 193 379
374 14 49 16 184 16 1241 0 1057 -2 1192 -16 1241 -53 181 -202 327 -379 374
-86 22 -1701 21 -1784 -1z m616 -861 c-3 -806 -2 -782 -57 -931 -125 -336
-429 -578 -777 -619 l-53 -6 0 232 c0 201 2 231 15 231 36 0 142 44 197 81 94
64 172 178 197 290 7 27 11 313 11 757 l0 712 235 0 236 0 -4 -747z m1196 715
c121 -57 216 -182 237 -313 6 -33 10 -280 10 -558 l0 -498 -69 60 c-126 108
-236 173 -378 224 -133 48 -220 57 -560 57 l-313 0 0 530 0 531 508 -3 507 -3
58 -27z m-1793 -50 c3 -1138 0 -1348 -19 -1398 -42 -110 -139 -199 -245 -226
l-26 -6 0 665 c0 407 4 685 10 718 22 114 108 231 208 284 69 36 72 34 72 -37z
m1405 -1138 c208 -34 426 -164 570 -340 l60 -73 3 -476 c3 -518 0 -568 -48
-667 -52 -107 -172 -199 -285 -220 l-40 -7 73 78 c159 171 236 422 203 669
-45 333 -222 568 -501 662 -48 16 -89 18 -315 19 l-260 0 -2 -700 c-1 -385 -2
-706 -3 -712 0 -10 -36 -13 -145 -13 l-145 0 0 543 0 543 31 57 c42 78 88 208
105 295 8 41 14 133 14 206 0 73 3 136 7 139 10 11 611 8 678 -3z m-19 -514
c137 -36 265 -146 332 -286 109 -226 110 -471 2 -679 -68 -130 -164 -215 -307
-270 -80 -30 -87 -31 -243 -31 l-160 0 0 640 0 640 163 0 c105 0 180 -5 213
-14z m-966 -822 l0 -445 -202 3 -203 3 -66 31 c-78 37 -158 115 -194 188 -32
66 -45 137 -45 251 l0 93 57 6 c224 25 433 118 593 265 30 28 56 50 58 51 1 0
2 -201 2 -446z"/>
</g>
</svg>
